<svg version="1.0" xmlns="http://www.w3.org/2000/svg" width="1260" height="1260" viewBox="250 144 755 945"><text x="627" y="810" fill="#ffba00" font-family="Arial, Helvetica, sans-serif" font-size="670" font-weight="500" text-anchor="middle" dominant-baseline="middle">$</text><path d="M818.3 145.4c-9.7 3.2-19.7 11.7-24.3 20.6-5 9.8-5 8.3-5 145.3 0 121.3-.1 127.8-1.7 127.3-26.8-7.9-69.2-13.7-84.8-11.6-25.1 3.5-51 30.1-57 58.8-2.5 11.4-2.9 10.8 7.8 11.5 21.5 1.5 39.8 4.6 86.2 14.7 39.1 8.6 66 20.3 93.3 40.7 9.4 7 28.4 25.3 36.2 34.8 20.5 25.1 36.7 57.9 45.5 92.1 5.8 22.5 7.9 40.5 7.9 66.9 0 36.6-5.5 67.7-17.1 97.5-12.8 32.9-35.5 66.8-60.5 90.5-44 41.5-101.6 66.2-169.8 72.9-9.1.9-15.1 2-18.2 3.4-7.2 3.2-13 9.2-16.8 17.4-3.2 6.9-3.4 7.8-3.3 18.3.1 15.9 4.4 25.7 14.4 33.1 8.8 6.5 13.7 7.8 27.9 7.8 39.9-.2 98.9-16.5 142-39.1 93.8-49.4 157.8-134.1 176.9-234.3 15.8-83.3 2.6-168.1-37.1-236.3-20.7-35.8-53.9-72.6-84.8-94.3l-8-5.6V328.6c0-164.9.4-155.5-6.4-166.6-3.8-6.2-13.5-14.3-19.3-16-6-1.9-19.2-2.2-24-.6M569.7 265c-11.4 2.9-20.9 11.1-26.6 23l-3.6 7.5-.3 65.7c-.1 36.2-.6 65.8-1 65.8-2.7 0-26.4 3.5-35.2 5.1-80.3 15.2-150.7 61.7-196.9 129.9-31.2 46.2-49.5 98.3-54.2 154.6-2.4 28.5-.2 70.1 5.2 96.9C281 933.3 368 1029.6 489 1070.4c36.1 12.2 80.7 19.8 97.8 16.7 12-2.1 21.4-9.1 26.6-19.7 7-14.2 6-33.7-2.4-45.8-6.5-9.4-12.4-12.1-31.1-14.1-83.5-8.8-151.9-45.8-197.4-106.6-25.5-34.1-41.3-72.9-47.7-117.4-2.5-17.6-3-53.7-1-69.5 7.4-56.5 29.6-103.3 66.7-140.5 29.3-29.5 66.3-49.7 107-58.4 5.5-1.2 14.3-3.3 19.5-4.6 24.4-6.1 52.5-10.8 75.8-12.7l15.2-1.2v-99.1c0-81.8-.3-99.8-1.4-103.6-5.4-17.9-18.7-28.9-35.5-29.5-4.2-.2-9.3.1-11.4.6" fill="#ffba00"/></svg>
